#!OML:ASF X:\für Bonn\!DataBase\2005_08_11_Bastian_Final\c3d\Bastian.ASF
:FULLY-SPECIFIED
:DEGREES
88
root -0.614923 17.3707 20.8518 -732.728 -183.028 -716.81
lowerback 10.5371 -5.83518 1.96409
upperback 6.00956 -6.79386 2.59854
thorax 0.477117 -3.06262 2.26748
lowerneck -11.4514 -4.44024 -6.19017
upperneck 13.1123 -6.20082 9.72545
head 6.36871 -2.46585 3.57511
rclavicle 8.56762e-014 -3.18055e-014
rhumerus -39.3523 -0.718834 -83.4992
rradius 27.5289
rwrist -6.09155
rhand -16.7155 2.85397
rfingers 7.12502
rthumb 9.50981 -26.9114
lclavicle 8.56762e-014 -3.18055e-014
lhumerus -19.966 -20.6687 94.2373
lradius 17.7851
lwrist 18.9521
lhand -12.2817 -7.2763
lfingers 7.12502
lthumb 13.7855 22.247
rfemur -0.042902 -0.204152 21.737
rtibia 35.3744
rfoot -16.5144 -8.83169
rtoes -12.1194
lfemur 9.5439 5.77877 -14.7442
ltibia 19.3817
lfoot -8.79916 -4.93105
ltoes -1.1322
89
root -0.607954 17.3732 20.8564 -732.684 -183.103 -716.925
lowerback 10.576 -5.89689 1.92883
upperback 6.07089 -6.86906 2.60073
thorax 0.5268 -3.09683 2.29689
lowerneck -11.4416 -4.3667 -6.01008
upperneck 12.9885 -6.10712 9.58559
head 6.30979 -2.42776 3.50827
rclavicle 7.91163e-014 -2.14687e-014
rhumerus -39.1953 -0.811232 -83.3655
rradius 27.4217
rwrist -6.01864
rhand -16.6546 2.69481
rfingers 7.12502
rthumb 9.56862 -27.0679
lclavicle 7.91163e-014 -2.14687e-014
lhumerus -20.046 -20.7865 94.4122
lradius 18.1152
lwrist 19.4398
lhand -12.2729 -7.50412
lfingers 7.12502
lthumb 13.794 22.0186
rfemur -0.15774 -0.102546 21.5924
rtibia 35.2226
rfoot -16.5031 -8.95705
rtoes -12.3905
lfemur 9.5671 5.6223 -14.9182
ltibia 19.2223
lfoot -8.78909 -4.63896
ltoes -1.29375
90
root -0.600214 17.3754 20.8607 -732.638 -183.216 -717.001
lowerback 10.582 -5.9683 1.9127
upperback 6.17013 -6.95149 2.63004
thorax 0.635457 -3.13182 2.33915
lowerneck -11.4983 -4.27783 -5.84102
upperneck 12.8737 -5.98731 9.4197
head 6.26293 -2.37872 3.4365
rclavicle 8.74653e-015 7.95139e-015
rhumerus -38.9254 -0.874035 -83.2246
rradius 27.2253
rwrist -5.98874
rhand -16.6327 2.64597
rfingers 7.12502
rthumb 9.58978 -27.1158
lclavicle 8.74653e-015 7.95139e-015
lhumerus -20.044 -20.7848 94.5726
lradius 18.4118
lwrist 19.8964
lhand -12.2271 -7.7049
lfingers 7.12502
lthumb 13.8382 21.8148
rfemur -0.269504 0.0022288 21.5004
rtibia 35.0897
rfoot -16.5011 -9.04726
rtoes -12.7269
lfemur 9.58808 5.49523 -15.0348
ltibia 19.0865
lfoot -8.79174 -4.35278
ltoes -1.56334
91
root -0.589148 17.3764 20.866 -732.593 -183.354 -717.124
lowerback 10.6102 -6.01463 1.82645
upperback 6.26429 -7.00765 2.65115
thorax 0.733783 -3.15643 2.41085
lowerneck -11.5695 -4.19372 -5.66465
upperneck 12.7778 -5.87824 9.27428
head 6.2263 -2.3315 3.36916
rclavicle 3.21037e-014 1.43125e-014
rhumerus -38.6572 -1.01975 -83.0374
rradius 27.035
rwrist -5.88457
rhand -16.5668 2.56834
rfingers 7.12502
rthumb 9.65328 -27.1905
lclavicle 3.21037e-014 1.43125e-014
lhumerus -20.0587 -20.7564 94.7201
lradius 18.724
lwrist 20.3043
lhand -12.1602 -7.89578
lfingers 7.12502
lthumb 13.9027 21.6195
rfemur -0.389697 0.163418 21.3976
rtibia 34.9877
rfoot -16.4919 -9.21062
rtoes -13.2067
lfemur 9.61157 5.54933 -15.1347
ltibia 18.9396
lfoot -8.74446 -4.2
ltoes -1.81522
92
root -0.577123 17.3781 20.8725 -732.534 -183.501 -717.24
lowerback 10.623 -6.0588 1.75066
upperback 6.37506 -7.05916 2.67144
thorax 0.856633 -3.1777 2.47306
lowerneck -11.6643 -4.10084 -5.44397
upperneck 12.6626 -5.75925 9.09368
head 6.18493 -2.28032 3.28375
rclavicle -5.93372e-014 2.70347e-014
rhumerus -38.3338 -1.12888 -82.8892
rradius 26.7856
rwrist -5.83186
rhand -16.554 2.53187
rfingers 7.12502
rthumb 9.66565 -27.2264
lclavicle -5.93372e-014 2.70347e-014
lhumerus -20.0213 -20.6779 94.8328
lradius 19.0208
lwrist 20.6363
lhand -12.0242 -8.0388
lfingers 7.12502
lthumb 14.0337 21.4674
rfemur -0.533543 0.312401 21.3046
rtibia 34.8964
rfoot -16.4449 -9.34312
rtoes -13.3712
lfemur 9.59718 5.5313 -15.2426
ltibia 18.8196
lfoot -8.73381 -3.98794
ltoes -2.09915
93
root -0.563605 17.3795 20.8798 -732.481 -183.647 -717.379
lowerback 10.6657 -6.10189 1.62337
upperback 6.47309 -7.11291 2.69986
thorax 0.957872 -3.20238 2.57543
lowerneck -11.7433 -4.00903 -5.25294
upperneck 12.564 -5.63945 8.9223
head 6.14758 -2.22939 3.20671
rclavicle 3.53837e-014 -9.54166e-015
rhumerus -38.0051 -1.27829 -82.7044
rradius 26.5112
rwrist -5.73509
rhand -16.5209 2.50026
rfingers 7.12502
rthumb 9.69763 -27.2565
lclavicle 3.53837e-014 -9.54166e-015
lhumerus -20.0619 -20.6554 94.9882
lradius 19.3971
lwrist 21.075
lhand -11.8532 -8.08556
lfingers 7.12502
lthumb 14.1984 21.4092
rfemur -0.681912 0.474005 21.2061
rtibia 34.8332
rfoot -16.3771 -9.49217
rtoes -13.7601
lfemur 9.59303 5.48953 -15.3783
ltibia 18.6995
lfoot -8.71363 -3.75415
ltoes -2.31853
94
root -0.549953 17.38 20.8869 -732.441 -183.838 -717.505
lowerback 10.7033 -6.13181 1.53544
upperback 6.59669 -7.14248 2.72912
thorax 1.08339 -3.2122 2.65318
lowerneck -11.8283 -3.916 -5.04014
upperneck 12.4352 -5.51661 8.71663
head 6.1004 -2.17971 3.11518
rclavicle 7.15625e-015 6.36111e-015
rhumerus -37.6504 -1.45647 -82.5015
rradius 26.2267
rwrist -5.63409
rhand -16.4901 2.55135
rfingers 7.12502
rthumb 9.72734 -27.204
lclavicle 7.15625e-015 6.36111e-015
lhumerus -20.0835 -20.8548 95.1751
lradius 19.7853
lwrist 21.6618
lhand -11.7062 -8.08308
lfingers 7.12502
lthumb 14.3401 21.4017
rfemur -0.807734 0.613094 21.1266
rtibia 34.7782
rfoot -16.2831 -9.62495
rtoes -14.1485
lfemur 9.60535 5.52759 -15.4705
ltibia 18.5886
lfoot -8.69481 -3.56415
ltoes -2.48119
95
root -0.536215 17.3809 20.895 -732.397 -184.036 -717.644
lowerback 10.763 -6.17092 1.43125
upperback 6.7081 -7.18514 2.76298
thorax 1.18777 -3.22972 2.7486
lowerneck -11.8827 -3.80815 -4.86863
upperneck 12.2892 -5.37047 8.53858
head 6.04329 -2.11968 3.04197
rclavicle 7.93151e-014 -8.0309e-014
rhumerus -37.3227 -1.66775 -82.258
rradius 25.9678
rwrist -5.41689
rhand -16.4353 2.62901
rfingers 7.12502
rthumb 9.78017 -27.1239
lclavicle 7.93151e-014 -8.0309e-014
lhumerus -20.1616 -21.0809 95.3994
lradius 20.2053
lwrist 22.328
lhand -11.639 -7.98392
lfingers 7.12502
lthumb 14.4048 21.4962
rfemur -0.944287 0.749408 21.0364
rtibia 34.7412
rfoot -16.1912 -9.73813
rtoes -14.5198
lfemur 9.60206 5.55823 -15.582
ltibia 18.4789
lfoot -8.66828 -3.35137
ltoes -2.73732
96
root -0.522581 17.3804 20.9035 -732.358 -184.222 -717.791
lowerback 10.8417 -6.20436 1.32751
upperback 6.83317 -7.21694 2.79314
thorax 1.2956 -3.2407 2.84028
lowerneck -12.0366 -3.713 -4.64277
upperneck 12.1922 -5.24709 8.32347
head 6.01839 -2.06754 2.94492
rclavicle -2.38542e-014 1.98785e-014
rhumerus -36.9964 -1.76845 -82.065
rradius 25.7832
rwrist -5.35595
rhand -16.3631 2.67416
rfingers 7.12502
rthumb 9.8499 -27.0754
lclavicle -2.38542e-014 1.98785e-014
lhumerus -20.1974 -21.2865 95.5947
lradius 20.6194
lwrist 22.9609
lhand -11.4912 -7.84489
lfingers 7.12502
lthumb 14.5473 21.625
rfemur -1.07585 0.90494 20.9415
rtibia 34.7089
rfoot -16.0667 -9.85977
rtoes -14.6023
lfemur 9.59762 5.56608 -15.716
ltibia 18.3894
lfoot -8.66667 -3.11578
ltoes -3.15664
97
root -0.510558 17.3809 20.9127 -732.316 -184.401 -717.931
lowerback 10.9428 -6.25322 1.27221
upperback 6.94979 -7.26391 2.81133
thorax 1.37565 -3.2575 2.89761
lowerneck -12.1564 -3.60715 -4.42369
upperneck 12.0701 -5.11107 8.13428
head 5.98036 -2.00868 2.85897
rclavicle 2.73329e-014 -1.43125e-014
rhumerus -36.67 -1.91019 -81.8682
rradius 25.5933
rwrist -5.20548
rhand -16.3157 2.74591
rfingers 7.12502
rthumb 9.89557 -27.0015
lclavicle 2.73329e-014 -1.43125e-014
lhumerus -20.2773 -21.5312 95.7946
lradius 21.0521
lwrist 23.6622
lhand -11.3864 -7.72582
lfingers 7.12502
lthumb 14.6482 21.7368
rfemur -1.20722 0.957502 20.8307
rtibia 34.6865
rfoot -15.9264 -9.91604
rtoes -14.7932
lfemur 9.58426 5.5162 -15.8609
ltibia 18.3038
lfoot -8.6702 -2.84186
ltoes -3.39453
98
root -0.50026 17.3805 20.9225 -732.275 -184.589 -718.056
lowerback 11.0743 -6.30356 1.27124
upperback 7.07225 -7.30351 2.83089
thorax 1.43861 -3.26731 2.92924
lowerneck -12.344 -3.51355 -4.17691
upperneck 11.9864 -4.99216 7.89703
head 5.96563 -1.95859 2.75101
rclavicle 5.96354e-015 1.82882e-014
rhumerus -36.3527 -2.0006 -81.6977
rradius 25.4509
rwrist -5.06072
rhand -16.2499 2.793
rfingers 7.12502
rthumb 9.95905 -26.9514
lclavicle 5.96354e-015 1.82882e-014
lhumerus -20.3355 -21.7147 95.9989
lradius 21.4542
lwrist 24.264
lhand -11.3396 -7.57927
lfingers 7.12502
lthumb 14.6933 21.8801
rfemur -1.34071 1.0007 20.7323
rtibia 34.6674
rfoot -15.7629 -9.94381
rtoes -15.0242
lfemur 9.56356 5.46638 -16.0023
ltibia 18.2268
lfoot -8.68081 -2.54594
ltoes -3.83558
99
root -0.491631 17.3801 20.933 -732.264 -184.75 -718.197
lowerback 11.2381 -6.37254 1.25891
upperback 7.22306 -7.36158 2.85229
thorax 1.51704 -3.28402 2.97265
lowerneck -12.6039 -3.40355 -3.91756
upperneck 11.9192 -4.85054 7.62951
head 5.96643 -1.89803 2.63289
rclavicle 1.98785e-014 -5.08889e-014
rhumerus -35.9894 -2.09299 -81.5
rradius 25.3408
rwrist -4.89785
rhand -16.1607 2.8734
rfingers 7.12502
rthumb 10.0451 -26.8669
lclavicle 1.98785e-014 -5.08889e-014
lhumerus -20.3046 -21.7549 96.1533
lradius 21.8225
lwrist 24.7199
lhand -11.2577 -7.45922
lfingers 7.12502
lthumb 14.7722 21.9943
rfemur -1.44366 1.01268 20.6003
rtibia 34.6514
rfoot -15.6093 -9.92658
rtoes -15.1018
lfemur 9.55646 5.33648 -16.1864
ltibia 18.1679
lfoot -8.708 -2.205
ltoes -4.08249
100
root -0.484387 17.3794 20.9433 -732.226 -184.902 -718.314
lowerback 11.4113 -6.45684 1.31664
upperback 7.35604 -7.43323 2.87386
thorax 1.5633 -3.30517 2.98176
lowerneck -12.84 -3.29021 -3.68277
upperneck 11.8238 -4.70367 7.39043
head 5.95596 -1.83503 2.52882
rclavicle 3.24019e-014 -3.57812e-014
rhumerus -35.6255 -2.17529 -81.3217
rradius 25.2542
rwrist -4.70908
rhand -16.0711 2.90317
rfingers 7.12502
rthumb 10.1315 -26.8329
lclavicle 3.24019e-014 -3.57812e-014
lhumerus -20.3279 -21.9051 96.3439
lradius 22.1973
lwrist 25.2245
lhand -11.2246 -7.39145
lfingers 7.12502
lthumb 14.8042 22.0598
rfemur -1.56818 1.01792 20.4941
rtibia 34.6397
rfoot -15.3918 -9.91195
rtoes -15.156
lfemur 9.5208 5.20939 -16.3544
ltibia 18.1197
lfoot -8.74514 -1.86723
ltoes -4.51688
